<?xml version="1.0" encoding="UTF-8"?>
<svg id="Layer_1" data-name="Layer 1" xmlns="http://www.w3.org/2000/svg" viewBox="0 0 3552.14 1304.42">
  <defs>
    <style>
      .cls-1 {
        fill: #fbaa1d;
      }

      .cls-2 {
        fill: #eea133;
      }

      .cls-3 {
        fill: #010101;
      }

      .cls-4 {
        fill: #f99b1c;
      }

      .cls-5 {
        fill: #0d0d0d;
      }
    </style>
  </defs>
  <path class="cls-3" d="M167.61,890.62V263.25c163.62-2.62,286.8,32.5,369.54,105.37,61.73,55.43,92.59,120.71,92.59,195.85,0,81.38-34.37,150.87-103.1,208.47-82.84,69.49-202.52,108.72-359.04,117.69ZM339.49,426.13v309.15c75.59-32.81,113.38-88.56,113.38-167.27.15-88.79-37.64-136.08-113.38-141.88Z"/>
  <path class="cls-3" d="M1102.39,660.76l-222.45,45.96c13.3,48.58,42.88,72.89,88.74,72.94,25.71-.88,50.87-7.65,73.55-19.81v113.38c-38.37,13.54-78.67,20.79-119.35,21.47-67.52,0-122.27-24.31-164.25-72.94-41.37-47.02-62.06-106.48-62.06-178.39s17.18-134.24,51.55-179.14c36.28-48.63,87.53-72.94,153.74-72.94s113.61,24.31,149.89,72.94c33.81,45.35,50.69,105.07,50.64,179.14v17.38ZM952.57,593.63c-6.4-61.43-22.02-92.17-46.86-92.21-28.72,0-43.08,36.41-43.08,109.22l89.95-17.01Z"/>
  <path class="cls-3" d="M1499.6,731.28c0,52.86-17.84,93.3-53.52,121.32-35.68,28.02-86.07,42.03-151.17,42.03-49.17.06-98.08-7.17-145.13-21.47l3.85-113.38c35.28,15.06,73.38,22.35,111.72,21.39,50.89,0,76.34-17.64,76.34-52.91,0-19.5-16.56-38.85-49.66-57.82-54.73-32.25-84.96-50.75-90.7-55.48-32.4-26.46-48.3-58.43-47.7-95.92.54-17.59,5.24-34.81,13.7-50.24,8.46-15.44,20.44-28.65,34.98-38.57,35.02-25.95,83.07-38.9,144.14-38.85,35.93,1.35,71.51,7.48,105.82,18.22l4.76,106.27c-26.86-10.94-55.66-16.34-84.66-15.87-35.27,0-52.91,10.08-52.91,30.23,0,17.99,15.34,34.11,46.03,48.38,46.71,21.16,75.84,36.48,87.38,45.96,31.09,25.75,46.66,61.33,46.71,106.73Z"/>
  <path class="cls-3" d="M1713.94,883.77h-157.2v-493.12h157.2v493.12Z"/>
  <path class="cls-3" d="M3103.31,431.37l448.82,317.46c-19.56,29.45-46.24,53.5-77.54,69.92-76.19,40.44-154.36,42.25-228.8-.53-48.92-28.12-99.09-57.82-133.87-104.39-60.46-80.42-68.03-166.82-22.68-256.99,3.85-8.62,8.85-16.4,14.07-25.47ZM3105.66,468.18c-37.28,54.5-26.68,179.74,19.34,224.8-9.98-32.02-12.74-65.85-8.08-99.06,4.67-33.21,16.64-64.98,35.07-93l-46.33-32.73Z"/>
  <path class="cls-4" d="M3332.78,552.68c4-2.49,25.71-11.79,64.71-17.01,8.98-1.21,23.65-16.93,16.24-29.56-7.39-12.62-35.29-41.12-16.99-44.75,39.38-7.56,41.04-8.62,47.39-15.49,2.94-3.17,6.57-17.84-9.67-48.45-5.22,29.55-8.69,38.62-15.95,40.74-9,2.64-20.04-2.95-30.24,0-13.92,3.63-26,19.73-22.68,33.94,3.63,16.17,26.31,25.85,26,38.7,0,9.22-4.07,10.35-12.17,13.15-16.92,5.97-30.97,1.36-39.76,10.43-4.58,4.97-7.04,11.53-6.88,18.29Z"/>
  <path class="cls-4" d="M3344.29,347.69c-.91,4.61-2.28,28.19,6.19,66.67,1.97,8.84-7.57,27.97-22.23,25.32-14.67-2.64-50.71-19.05-47.83-.6,6.26,39.61,6.04,41.5,1.66,49.81-1.97,3.85-14.45,12.25-48.83,7.56,26-15.12,33.32-21.39,32.88-28.95-.69-9.37-9.6-17.76-10.66-28.57-.58-7.47,1.53-14.9,5.93-20.95,4.4-6.06,10.82-10.34,18.12-12.08,16.39-2.12,33.32,15.87,45.33,11.19,8.56-3.4,8.32-7.56,8.16-15.95,0-17.91-9.29-29.56-3.76-40.89,3.16-6,8.56-10.5,15.04-12.55Z"/>
  <path class="cls-4" d="M3401.96,593.81c9.58-4.18,19.8-6.74,30.22-7.56,4.16-.6,10.88-7.56,7.57-13.68-3.34-6.12-16.26-18.97-7.57-20.63,18.14-3.55,18.89-3.93,21.86-7.1,1.35-1.51,3.01-8.24-4.47-22.68-2.41,13.68-4,17.84-7.57,18.82-3.54.98-9.23-1.36-14.05,0-3.32.92-6.22,2.99-8.14,5.84-1.92,2.86-2.77,6.31-2.37,9.73,1.66,7.56,12.17,11.94,12.01,17.92,0,4.23-1.88,4.69-5.6,6.05-7.54,2.72-14.27.6-18.36,4.76-2.26,2.28-3.52,5.34-3.54,8.54Z"/>
  <path class="cls-4" d="M262.47,851.76c.28,1.23.3,2.51.05,3.75-.24,1.24-.75,2.42-1.47,3.45-.73,1.04-1.66,1.91-2.74,2.56-1.08.65-2.29,1.07-3.54,1.23-1.25.16-2.53.05-3.74-.31-1.21-.36-2.33-.98-3.29-1.8-.96-.82-1.74-1.84-2.29-2.98-.55-1.14-.85-2.38-.88-3.65-.28-1.23-.3-2.51-.05-3.75.24-1.24.75-2.42,1.47-3.45.73-1.04,1.66-1.91,2.74-2.56,1.08-.65,2.29-1.07,3.54-1.23s2.53-.05,3.74.31c1.21.36,2.33.97,3.29,1.8.96.82,1.74,1.83,2.29,2.98s.85,2.38.88,3.65Z"/>
  <path class="cls-4" d="M295.5,845.79c.23,1.16.23,2.36,0,3.52-.23,1.16-.69,2.26-1.35,3.25-.66.98-1.51,1.83-2.49,2.48-.98.66-2.09,1.11-3.25,1.34-1.16.23-2.36.23-3.52,0-1.16-.23-2.26-.69-3.25-1.35s-1.83-1.51-2.48-2.49c-.65-.99-1.11-2.09-1.34-3.25-.46-2.35.03-4.78,1.36-6.76,1.33-1.98,3.4-3.36,5.75-3.82,2.35-.46,4.78.03,6.76,1.36,1.98,1.33,3.36,3.4,3.82,5.74Z"/>
  <path class="cls-4" d="M328.07,837.7c.35,1.17.46,2.4.34,3.62-.13,1.21-.49,2.39-1.08,3.47-.58,1.07-1.37,2.02-2.32,2.79-.95.77-2.04,1.35-3.21,1.69-2.4.55-4.93.12-7.02-1.18-2.1-1.3-3.59-3.38-4.17-5.77-.63-2.35-.3-4.84.9-6.95,1.2-2.11,3.19-3.66,5.53-4.31,1.16-.29,2.37-.35,3.56-.18,1.18.18,2.32.59,3.35,1.2,1.02.62,1.92,1.43,2.63,2.4.71.96,1.22,2.06,1.5,3.23Z"/>
  <path class="cls-4" d="M360.12,827.57c.45,1.14.67,2.37.63,3.6-.04,1.23-.32,2.44-.83,3.55-.52,1.12-1.25,2.11-2.17,2.94-.91.82-1.99,1.45-3.15,1.84-1.16.39-2.4.55-3.62.45-1.23-.1-2.42-.44-3.51-1.01-1.09-.57-2.05-1.36-2.83-2.31-.77-.95-1.35-2.06-1.68-3.24-.77-2.32-.61-4.84.43-7.05,1.04-2.21,2.89-3.93,5.17-4.82,2.34-.71,4.86-.48,7.02.65,2.16,1.13,3.8,3.07,4.54,5.39Z"/>
  <path class="cls-4" d="M391.42,815.4c.5,1.11.76,2.31.79,3.52.02,1.21-.2,2.42-.65,3.55-.45,1.13-1.12,2.15-1.98,3.02-.86.86-1.88,1.54-3,2.01-1.13.44-2.35.64-3.56.61-1.22-.03-2.41-.31-3.52-.81-1.11-.5-2.11-1.21-2.94-2.1-.83-.89-1.48-1.93-1.91-3.07-.92-2.24-.94-4.75-.06-7.01.89-2.25,2.62-4.08,4.82-5.09,2.31-.81,4.84-.7,7.08.3,2.23,1,4,2.81,4.94,5.07Z"/>
  <path class="cls-4" d="M421.58,800.74c.6,1.09.96,2.29,1.08,3.53.12,1.23-.02,2.48-.4,3.66-.38,1.18-1,2.27-1.82,3.21-.82.93-1.81,1.69-2.93,2.23-2.26,1.03-4.83,1.12-7.15.25-2.32-.87-4.21-2.61-5.25-4.86-1.09-2.15-1.29-4.64-.55-6.93.73-2.29,2.35-4.2,4.48-5.31,2.23-1.1,4.8-1.27,7.15-.48,2.35.79,4.29,2.49,5.4,4.71Z"/>
  <path class="cls-4" d="M450.52,783.73c.9.98,1.58,2.15,1.98,3.42.4,1.27.52,2.61.34,3.94-.18,1.32-.65,2.59-1.37,3.71-.72,1.12-1.69,2.07-2.82,2.78-1.13.71-2.4,1.15-3.73,1.31-1.32.16-2.67.02-3.93-.4-1.27-.42-2.42-1.11-3.39-2.03-.97-.92-1.72-2.04-2.21-3.28-1.24-2.06-1.63-4.53-1.08-6.87.55-2.34,2-4.38,4.03-5.67,2.04-1.15,4.44-1.47,6.71-.9,2.27.58,4.22,2.01,5.46,4Z"/>
  <path class="cls-4" d="M477.96,764.31c1.52,1.95,2.21,4.42,1.93,6.88s-1.52,4.71-3.44,6.27c-.99.73-2.12,1.26-3.32,1.54-1.2.28-2.44.31-3.65.09-1.21-.22-2.37-.69-3.39-1.37-1.02-.68-1.9-1.57-2.56-2.61-1.38-1.96-1.98-4.38-1.65-6.77.32-2.38,1.54-4.56,3.39-6.08,1.96-1.4,4.39-1.97,6.77-1.59,2.38.38,4.51,1.69,5.93,3.63Z"/>
  <path class="cls-4" d="M503.28,742.38c1.75,1.76,2.73,4.13,2.73,6.62s-.98,4.86-2.73,6.61c-.89.85-1.95,1.5-3.1,1.92-1.16.41-2.39.58-3.62.49-1.23-.09-2.42-.44-3.5-1.02-1.08-.58-2.03-1.39-2.78-2.36-1.65-1.76-2.56-4.09-2.56-6.5s.92-4.74,2.56-6.5c.9-.81,1.95-1.44,3.1-1.84,1.14-.4,2.35-.57,3.56-.5,1.21.07,2.39.38,3.48.91,1.09.53,2.06,1.27,2.86,2.18Z"/>
  <path class="cls-4" d="M526.34,718.05c.94.79,1.71,1.76,2.27,2.85.56,1.09.9,2.28,1,3.5.1,1.22-.05,2.45-.42,3.62-.38,1.17-.99,2.25-1.78,3.18-.79.92-1.76,1.68-2.86,2.21-1.1.53-2.29.82-3.5.87-1.22.04-2.43-.17-3.56-.62-1.13-.45-2.15-1.13-3-2-1.78-1.66-2.86-3.92-3.05-6.35-.18-2.42.56-4.83,2.06-6.73.81-.88,1.78-1.6,2.86-2.1,1.08-.5,2.26-.79,3.45-.84,1.19-.05,2.38.14,3.51.55,1.12.41,2.15,1.04,3.03,1.85Z"/>
  <path class="cls-4" d="M911.91,682.38c.38,1.88.2,3.83-.53,5.6-.73,1.77-1.96,3.29-3.55,4.36-1.59,1.07-3.46,1.64-5.38,1.65-1.92,0-3.79-.56-5.39-1.63-1.6-1.06-2.84-2.58-3.57-4.35-.73-1.77-.92-3.72-.55-5.6.38-1.88,1.3-3.6,2.66-4.96,1.36-1.35,3.09-2.27,4.97-2.64,1.24-.26,2.52-.28,3.77-.04,1.25.24,2.43.73,3.49,1.43,1.06.71,1.96,1.61,2.66,2.67.7,1.06,1.18,2.25,1.42,3.5Z"/>
  <path class="cls-4" d="M947.21,675.19c.38,1.88.2,3.83-.53,5.6-.73,1.77-1.96,3.29-3.55,4.36-1.59,1.07-3.46,1.64-5.38,1.65-1.92,0-3.79-.56-5.38-1.62-1.6-1.06-2.84-2.58-3.57-4.35-.73-1.77-.92-3.72-.55-5.6.38-1.88,1.3-3.61,2.66-4.96,1.36-1.35,3.09-2.27,4.97-2.64,1.24-.27,2.53-.29,3.78-.06,1.25.23,2.44.72,3.5,1.42,1.06.71,1.96,1.62,2.66,2.68.7,1.06,1.17,2.26,1.4,3.51Z"/>
  <path class="cls-4" d="M976.11,679.63c5.24-1.07,8.63-6.08,7.59-11.19-1.04-5.11-6.13-8.39-11.37-7.32-5.23,1.07-8.63,6.08-7.59,11.19,1.04,5.11,6.13,8.39,11.37,7.32Z"/>
  <path class="cls-4" d="M1017.73,660.76c.38,1.88.2,3.83-.53,5.6-.73,1.77-1.96,3.29-3.55,4.36-1.59,1.07-3.46,1.64-5.38,1.65-1.92,0-3.79-.56-5.39-1.62-1.6-1.06-2.84-2.58-3.57-4.35-.73-1.77-.92-3.72-.55-5.6.38-1.88,1.3-3.61,2.66-4.96,1.36-1.35,3.09-2.27,4.97-2.64,1.24-.27,2.52-.28,3.77-.04,1.25.24,2.43.72,3.49,1.43,1.06.7,1.96,1.61,2.66,2.67.7,1.06,1.18,2.25,1.42,3.5Z"/>
  <path class="cls-4" d="M1053.03,653.57c.38,1.88.2,3.83-.53,5.6-.73,1.77-1.96,3.29-3.55,4.36-1.59,1.07-3.46,1.64-5.38,1.65-1.92,0-3.79-.56-5.38-1.63-1.6-1.06-2.84-2.58-3.57-4.35-.73-1.77-.92-3.72-.55-5.6.38-1.88,1.3-3.6,2.66-4.96,1.36-1.35,3.09-2.27,4.97-2.64,1.24-.25,2.52-.26,3.76-.02,1.24.25,2.43.73,3.48,1.43,1.05.7,1.96,1.61,2.66,2.66.7,1.05,1.19,2.24,1.43,3.48Z"/>
  <path class="cls-4" d="M1212.9,470.88c-1.77-1.87-2.78-4.34-2.83-6.92-.05-2.58.87-5.08,2.57-7.02,1.7-1.94,4.07-3.17,6.63-3.46,2.56-.29,5.14.39,7.23,1.91,1.6,1.91,2.47,4.33,2.44,6.82-.03,2.49-.95,4.89-2.59,6.77-1.65,1.87-3.91,3.1-6.37,3.44-2.47.35-4.98-.19-7.08-1.54Z"/>
  <path class="cls-4" d="M1196.5,505.35c-1.29-.41-2.47-1.09-3.47-1.99-1-.9-1.81-2.01-2.35-3.25-.54-1.24-.82-2.58-.81-3.93.01-1.35.31-2.68.88-3.91.38-1.3,1.02-2.51,1.9-3.54.87-1.04,1.95-1.88,3.17-2.47,1.22-.59,2.55-.92,3.9-.97,1.35-.04,2.7.19,3.96.7,2.33,1.16,4.13,3.15,5.07,5.58.93,2.43.93,5.12-.02,7.54-.95,2.42-2.76,4.4-5.1,5.56-2.33,1.15-5.01,1.39-7.51.67h.38Z"/>
  <path class="cls-4" d="M1196.04,543.52c-1.34.14-2.7,0-3.98-.42-1.28-.42-2.47-1.09-3.48-1.99-1.01-.89-1.82-1.99-2.38-3.21-.56-1.22-.87-2.55-.89-3.9-.21-1.35-.12-2.72.25-4.03.36-1.31,1.01-2.53,1.88-3.57.87-1.04,1.96-1.89,3.18-2.48,1.22-.59,2.56-.92,3.92-.96,2.48.17,4.81,1.23,6.57,2.98,1.76,1.75,2.84,4.07,3.03,6.54.24,2.51-.45,5.02-1.94,7.06-1.49,2.04-3.68,3.45-6.15,3.98Z"/>
  <path class="cls-4" d="M1209.19,579.04c-2.45.94-5.17.91-7.6-.07-2.43-.99-4.4-2.86-5.5-5.24-1.1-2.38-1.26-5.09-.44-7.59.82-2.49,2.56-4.58,4.85-5.85,2.44-.78,5.07-.65,7.42.37,2.35,1.01,4.25,2.85,5.35,5.15.99,2.33,1.12,4.94.38,7.36-.75,2.42-2.33,4.5-4.46,5.87Z"/>
  <path class="cls-4" d="M1691.21,526.14c-1.9.03-3.77-.51-5.37-1.54-1.6-1.04-2.85-2.53-3.6-4.28-.75-1.75-.96-3.69-.61-5.56.35-1.87,1.26-3.6,2.59-4.96,1.34-1.36,3.05-2.29,4.91-2.67,1.87-.38,3.8-.2,5.57.52,1.76.72,3.27,1.95,4.33,3.53,1.06,1.58,1.63,3.44,1.63,5.35.02,1.25-.21,2.5-.67,3.66-.47,1.16-1.16,2.22-2.04,3.12-.88.89-1.93,1.6-3.08,2.09-1.16.48-2.4.73-3.65.73Z"/>
  <path class="cls-4" d="M1691.21,561.89c5.22,0,9.45-4.3,9.45-9.6s-4.23-9.6-9.45-9.6-9.45,4.3-9.45,9.6,4.23,9.6,9.45,9.6Z"/>
  <path class="cls-4" d="M1691.21,597.64c-1.9.03-3.77-.51-5.37-1.54-1.6-1.04-2.85-2.52-3.6-4.28-.75-1.75-.96-3.69-.61-5.56.35-1.87,1.26-3.6,2.59-4.95,1.34-1.36,3.05-2.29,4.91-2.67,1.87-.38,3.8-.2,5.57.52,1.76.72,3.27,1.95,4.33,3.53,1.06,1.58,1.63,3.44,1.63,5.35.01,1.25-.23,2.49-.7,3.65-.47,1.16-1.16,2.21-2.04,3.11-.88.89-1.92,1.6-3.07,2.09-1.15.49-2.39.74-3.64.75Z"/>
  <path class="cls-4" d="M1691.21,633.39c-1.9.03-3.77-.51-5.37-1.54-1.6-1.04-2.85-2.52-3.6-4.28-.75-1.75-.96-3.69-.61-5.56.35-1.87,1.26-3.6,2.59-4.95,1.34-1.36,3.05-2.29,4.91-2.67,1.87-.38,3.8-.2,5.57.52,1.76.72,3.27,1.95,4.33,3.54,1.06,1.58,1.63,3.44,1.63,5.35.01,1.25-.23,2.49-.7,3.65-.47,1.16-1.16,2.21-2.04,3.11-.88.89-1.92,1.6-3.07,2.09-1.15.49-2.39.75-3.64.75Z"/>
  <path class="cls-4" d="M1691.21,669.15c-1.92.04-3.82-.49-5.44-1.52-1.62-1.04-2.9-2.54-3.66-4.31-.76-1.77-.98-3.73-.63-5.62.35-1.89,1.27-3.64,2.62-5.01,1.35-1.37,3.08-2.31,4.97-2.69,1.89-.38,3.85-.19,5.63.54,1.78.74,3.3,1.99,4.36,3.6,1.06,1.6,1.63,3.49,1.61,5.42.01,1.25-.23,2.49-.7,3.65-.47,1.16-1.16,2.21-2.04,3.11-.88.89-1.92,1.6-3.07,2.09-1.15.49-2.39.75-3.64.75Z"/>
  <path class="cls-4" d="M1691.21,704.9c-1.92.05-3.81-.48-5.44-1.52-1.62-1.04-2.89-2.53-3.66-4.29-.77-1.76-.99-3.72-.64-5.61.35-1.89,1.25-3.63,2.59-5.01,1.34-1.38,3.07-2.32,4.95-2.71,1.88-.39,3.84-.21,5.62.51,1.78.73,3.31,1.96,4.38,3.56,1.07,1.6,1.65,3.48,1.65,5.4.02,1.26-.21,2.51-.67,3.67-.46,1.17-1.15,2.23-2.03,3.13-.88.9-1.93,1.62-3.08,2.11-1.16.49-2.4.75-3.66.76Z"/>
  <path class="cls-4" d="M1691.21,740.57c5.22,0,9.45-4.3,9.45-9.6s-4.23-9.6-9.45-9.6-9.45,4.3-9.45,9.6,4.23,9.6,9.45,9.6Z"/>
  <path class="cls-4" d="M1691.21,776.33c-1.9.03-3.77-.51-5.37-1.54-1.6-1.04-2.85-2.53-3.6-4.28-.75-1.75-.96-3.69-.61-5.56.35-1.87,1.26-3.6,2.59-4.96,1.34-1.36,3.05-2.29,4.91-2.67,1.87-.38,3.8-.2,5.57.52,1.76.72,3.27,1.95,4.33,3.53,1.06,1.58,1.63,3.44,1.63,5.35.01,1.25-.23,2.49-.7,3.65-.47,1.16-1.16,2.21-2.04,3.11-.88.89-1.92,1.6-3.07,2.09-1.15.49-2.39.74-3.64.75Z"/>
  <path class="cls-4" d="M1426.73,822.05c-1.36-2.13-1.84-4.7-1.33-7.17.51-2.47,1.96-4.65,4.05-6.06,2.05-1.46,4.58-2.07,7.07-1.72,2.49.35,4.75,1.64,6.31,3.61,1.5,2.13,2.1,4.78,1.65,7.35-.45,2.57-1.9,4.86-4.03,6.37-2.14,1.5-4.78,2.1-7.35,1.65s-4.86-1.9-6.37-4.03Z"/>
  <path class="cls-4" d="M1394.91,840.5c-1.12-2.29-1.32-4.93-.54-7.37.77-2.43,2.46-4.47,4.71-5.69,2.25-1.22,4.87-1.52,7.34-.85,2.46.67,4.57,2.27,5.88,4.46,1.13,2.29,1.32,4.93.55,7.37-.78,2.43-2.46,4.47-4.71,5.69-2.25,1.22-4.88,1.52-7.34.85-2.46-.67-4.57-2.27-5.88-4.46Z"/>
  <path class="cls-4" d="M1361.2,855.08c-.5-1.21-.75-2.5-.75-3.8,0-1.3.26-2.6.77-3.8.5-1.2,1.24-2.3,2.16-3.22.92-.92,2.02-1.65,3.23-2.15,1.21-.5,2.5-.75,3.8-.75,1.31,0,2.6.26,3.8.76,1.21.5,2.3,1.24,3.22,2.16.92.92,1.65,2.02,2.14,3.23.5,1.19.74,2.46.73,3.75-.02,1.29-.29,2.56-.82,3.73-.52,1.17-1.28,2.23-2.23,3.1-.94.87-2.06,1.54-3.27,1.97-1.16.52-2.42.81-3.7.84-1.28.03-2.55-.19-3.74-.65-1.19-.46-2.27-1.16-3.19-2.05-.92-.89-1.65-1.95-2.15-3.13Z"/>
  <path class="cls-4" d="M1325.82,864.84c-.41-2.5.14-5.06,1.54-7.16,1.4-2.11,3.55-3.6,6.02-4.18,2.44-.59,5.02-.22,7.2,1.03,2.18,1.25,3.79,3.29,4.52,5.7.39,2.46-.16,4.98-1.54,7.06-1.38,2.08-3.5,3.55-5.92,4.13-2.42.58-4.98.23-7.16-.99-2.17-1.22-3.81-3.22-4.58-5.59h-.08Z"/>
  <path class="cls-4" d="M1289.31,868.61c.05-2.51,1.02-4.91,2.74-6.74,1.72-1.83,4.05-2.96,6.55-3.16,2.52-.13,4.99.69,6.92,2.3,1.94,1.61,3.19,3.9,3.51,6.4,0,2.52-.97,4.94-2.69,6.78-1.73,1.83-4.09,2.94-6.6,3.1-2.51.15-4.99-.66-6.93-2.27-1.94-1.61-3.19-3.9-3.5-6.4Z"/>
  <path class="cls-3" d="M1915.55,836.15l-83.08-68.07,230.54-311.15,56.69,35.9-204.15,343.31Z"/>
  <path class="cls-4" d="M2068.7,531.04c-1.48-1.27-2.57-2.97-3.13-4.89-.56-1.92-.57-3.98-.02-5.9.55-1.92,1.63-3.63,3.1-4.91,1.47-1.28,3.27-2.06,5.17-2.25,1.9-.19,3.8.21,5.48,1.17,1.68.96,3.05,2.41,3.93,4.19.89,1.78,1.26,3.8,1.06,5.8-.2,2-.96,3.89-2.19,5.43-.79,1.03-1.76,1.88-2.87,2.5-1.11.63-2.32,1.02-3.56,1.14-1.25.13-2.51,0-3.71-.4-1.2-.39-2.31-1.03-3.27-1.88Z"/>
  <path class="cls-4" d="M2045.75,559.97c4,3.54,10,2.92,13.41-1.37,3.4-4.29,2.92-10.63-1.08-14.17-4-3.54-10-2.92-13.41,1.37-3.4,4.29-2.92,10.63,1.08,14.17Z"/>
  <path class="cls-4" d="M2022.8,588.91c-1.48-1.27-2.57-2.97-3.13-4.89-.56-1.92-.57-3.98-.02-5.9.55-1.92,1.63-3.63,3.1-4.91,1.47-1.28,3.27-2.06,5.17-2.25s3.8.21,5.48,1.17c1.68.95,3.05,2.41,3.93,4.19.89,1.78,1.26,3.8,1.06,5.8-.2,2-.96,3.89-2.19,5.43-.79,1.02-1.77,1.86-2.88,2.48-1.1.62-2.31,1-3.56,1.13-1.24.13-2.5,0-3.7-.39-1.19-.39-2.31-1.02-3.27-1.86Z"/>
  <path class="cls-4" d="M1999.85,617.84c-1.48-1.27-2.57-2.97-3.13-4.89-.56-1.92-.57-3.98-.02-5.9.55-1.92,1.63-3.63,3.1-4.91,1.47-1.28,3.27-2.06,5.17-2.25,1.9-.19,3.8.21,5.48,1.17,1.68.96,3.05,2.41,3.93,4.19.89,1.78,1.26,3.8,1.06,5.8-.2,2-.96,3.89-2.19,5.43-.79,1.02-1.77,1.86-2.88,2.48-1.1.62-2.31,1-3.56,1.13-1.24.13-2.5,0-3.7-.39s-2.31-1.02-3.27-1.86Z"/>
  <path class="cls-4" d="M1976.9,646.78c-1.5-1.27-2.62-2.98-3.19-4.92-.58-1.94-.59-4.02-.04-5.97.55-1.95,1.63-3.68,3.12-4.97,1.49-1.29,3.31-2.09,5.22-2.28,1.92-.2,3.85.22,5.54,1.19,1.69.97,3.08,2.45,3.97,4.25.89,1.8,1.25,3.84,1.04,5.87-.21,2.02-1,3.93-2.24,5.48-.79,1.02-1.77,1.86-2.88,2.48-1.1.62-2.31,1-3.56,1.13-1.24.13-2.5,0-3.7-.39-1.19-.39-2.31-1.02-3.27-1.86Z"/>
  <path class="cls-4" d="M1953.94,675.71c-1.5-1.27-2.61-2.98-3.19-4.91-.58-1.94-.6-4.01-.05-5.96.54-1.95,1.62-3.68,3.1-4.97,1.48-1.29,3.29-2.1,5.21-2.3,1.91-.2,3.84.2,5.54,1.16,1.69.96,3.08,2.43,3.98,4.22s1.27,3.83,1.07,5.85c-.2,2.02-.97,3.93-2.2,5.48-.79,1.03-1.77,1.88-2.87,2.52-1.11.63-2.32,1.02-3.57,1.16-1.25.13-2.52,0-3.72-.38-1.2-.38-2.32-1.02-3.29-1.86Z"/>
  <path class="cls-4" d="M1931.04,704.58c4,3.54,10,2.92,13.41-1.37,3.4-4.29,2.92-10.64-1.08-14.17-4-3.54-10-2.92-13.41,1.37-3.4,4.29-2.92,10.63,1.08,14.17Z"/>
  <path class="cls-4" d="M1908.09,733.51c-1.48-1.27-2.57-2.97-3.13-4.89-.56-1.92-.57-3.98-.02-5.9.55-1.92,1.63-3.63,3.1-4.91,1.47-1.28,3.27-2.06,5.17-2.25,1.9-.19,3.81.21,5.48,1.17,1.67.96,3.04,2.41,3.93,4.19.89,1.78,1.25,3.8,1.05,5.8-.2,2-.96,3.89-2.18,5.43-.8,1.02-1.77,1.86-2.88,2.48-1.1.62-2.31,1-3.56,1.13-1.25.13-2.5,0-3.7-.39-1.2-.38-2.31-1.02-3.27-1.86Z"/>
  <path class="cls-3" d="M1802.23,517.18l317.46-24.34v-95.74h-317.46v120.08Z"/>
  <path class="cls-3" d="M1852.16,883.76l303.73-74.26-17.6-82.08-305.82,39.14,19.69,117.21Z"/>
  <path class="cls-3" d="M2333.81,829.69l-83.07-68.07,230.53-311.15,56.7,35.9-204.16,343.31Z"/>
  <path class="cls-4" d="M2486.97,524.58c-1.48-1.27-2.57-2.97-3.14-4.89-.55-1.92-.55-3.98,0-5.9.53-1.92,1.61-3.63,3.1-4.91,1.46-1.28,3.27-2.06,5.16-2.25,1.9-.19,3.81.21,5.49,1.17,1.68.96,3.05,2.42,3.94,4.19.89,1.78,1.26,3.8,1.04,5.79-.2,2-.95,3.89-2.17,5.43-.8,1.03-1.77,1.88-2.88,2.5-1.11.63-2.32,1.02-3.56,1.14-1.24.13-2.5,0-3.69-.4-1.22-.39-2.32-1.03-3.27-1.88Z"/>
  <path class="cls-4" d="M2464,553.51c4,3.54,10,2.92,13.41-1.37,3.41-4.29,2.92-10.63-1.08-14.17-4-3.54-10-2.92-13.41,1.37-3.41,4.29-2.92,10.63,1.08,14.17Z"/>
  <path class="cls-4" d="M2441.06,582.45c-1.48-1.27-2.57-2.97-3.14-4.89-.55-1.92-.55-3.98,0-5.9.55-1.92,1.61-3.63,3.1-4.91,1.46-1.28,3.27-2.06,5.16-2.25,1.9-.19,3.81.21,5.49,1.17,1.68.96,3.05,2.41,3.94,4.19.89,1.78,1.26,3.8,1.06,5.8-.2,2-.97,3.89-2.19,5.43-.8,1.02-1.77,1.86-2.88,2.48-1.11.62-2.32,1-3.56,1.13-1.24.13-2.5,0-3.69-.39-1.19-.38-2.3-1.02-3.27-1.86Z"/>
  <path class="cls-4" d="M2418.1,611.38c-1.46-1.27-2.57-2.97-3.12-4.89-.55-1.92-.58-3.98-.02-5.9.55-1.92,1.64-3.63,3.1-4.91,1.48-1.28,3.27-2.06,5.18-2.25,1.9-.19,3.81.21,5.49,1.17,1.66.96,3.03,2.41,3.94,4.19.88,1.78,1.24,3.8,1.04,5.8-.2,2-.95,3.89-2.19,5.43-.8,1.02-1.77,1.86-2.88,2.48-1.11.62-2.3,1-3.54,1.13-1.26.13-2.52,0-3.72-.39-1.19-.38-2.3-1.02-3.27-1.86Z"/>
  <path class="cls-4" d="M2395.15,640.32c-1.5-1.27-2.61-2.98-3.19-4.92-.58-1.94-.6-4.02-.04-5.97.53-1.95,1.64-3.68,3.12-4.97,1.48-1.29,3.3-2.09,5.22-2.28,1.92-.2,3.85.22,5.53,1.19,1.7.97,3.08,2.45,3.98,4.25.89,1.8,1.24,3.84,1.04,5.87-.22,2.02-1,3.93-2.26,5.48-.8,1.02-1.77,1.86-2.88,2.48s-2.32,1-3.56,1.13c-1.24.13-2.5,0-3.69-.39-1.19-.39-2.3-1.02-3.27-1.86Z"/>
  <path class="cls-4" d="M2372.21,669.25c-1.5-1.27-2.63-2.98-3.21-4.91s-.6-4.01-.04-5.96,1.61-3.68,3.1-4.97c1.48-1.29,3.3-2.1,5.22-2.3,1.9-.2,3.83.2,5.53,1.16,1.7.96,3.08,2.43,3.98,4.22.91,1.79,1.26,3.83,1.06,5.85-.2,2.02-.95,3.93-2.19,5.48-.8,1.03-1.77,1.88-2.88,2.52-1.11.63-2.32,1.02-3.58,1.16-1.24.13-2.5,0-3.72-.38-1.19-.38-2.32-1.02-3.27-1.86Z"/>
  <path class="cls-4" d="M2349.29,698.12c4,3.54,10.02,2.92,13.41-1.37,3.41-4.29,2.92-10.63-1.08-14.17-3.98-3.54-10-2.92-13.41,1.37-3.39,4.29-2.9,10.63,1.08,14.17Z"/>
  <path class="cls-4" d="M2326.35,727.05c-1.48-1.27-2.57-2.97-3.14-4.89-.55-1.92-.55-3.98,0-5.9.55-1.92,1.62-3.63,3.1-4.91,1.46-1.28,3.27-2.06,5.16-2.25,1.9-.19,3.81.21,5.49,1.17,1.68.96,3.05,2.42,3.94,4.19.88,1.78,1.26,3.8,1.06,5.79-.2,2-.97,3.89-2.19,5.43-.8,1.02-1.77,1.86-2.88,2.48s-2.32,1-3.56,1.13c-1.24.13-2.5,0-3.69-.39-1.19-.38-2.3-1.02-3.27-1.86Z"/>
  <path class="cls-3" d="M2220.49,510.72l317.48-24.34v-95.74h-317.48v120.08Z"/>
  <path class="cls-3" d="M2270.42,877.3l303.74-74.26-17.61-82.08-305.82,39.14,19.69,117.21Z"/>
  <path class="cls-3" d="M2752.08,829.69l-83.1-68.07,230.55-311.15,56.68,35.9-204.14,343.31Z"/>
  <path class="cls-4" d="M2905.22,524.58c-1.48-1.27-2.57-2.97-3.12-4.89-.58-1.92-.58-3.98-.02-5.9.55-1.92,1.64-3.63,3.1-4.91,1.48-1.28,3.27-2.06,5.18-2.25,1.88-.19,3.81.21,5.46,1.17,1.68.96,3.05,2.42,3.94,4.19.89,1.78,1.26,3.8,1.06,5.79-.2,2-.97,3.89-2.19,5.43-.8,1.03-1.77,1.88-2.88,2.5-1.11.63-2.3,1.02-3.56,1.14-1.24.13-2.5,0-3.69-.4s-2.3-1.03-3.27-1.88Z"/>
  <path class="cls-4" d="M2882.28,553.52c3.98,3.54,10,2.92,13.41-1.37,3.39-4.29,2.92-10.63-1.08-14.17-4-3.54-10-2.92-13.41,1.37-3.41,4.29-2.92,10.63,1.08,14.17Z"/>
  <path class="cls-4" d="M2859.31,582.45c-1.48-1.27-2.57-2.97-3.12-4.89-.55-1.92-.58-3.98-.02-5.9.55-1.92,1.64-3.63,3.1-4.91,1.48-1.28,3.27-2.06,5.18-2.25,1.9-.19,3.81.21,5.49,1.17,1.66.96,3.03,2.41,3.92,4.19.91,1.78,1.26,3.8,1.06,5.8-.2,2-.95,3.89-2.19,5.43-.8,1.02-1.77,1.86-2.88,2.48-1.11.62-2.3,1-3.56,1.13-1.24.13-2.5,0-3.69-.39s-2.3-1.02-3.27-1.86Z"/>
  <path class="cls-4" d="M2836.37,611.38c-1.48-1.27-2.57-2.97-3.14-4.89-.55-1.92-.55-3.98,0-5.9.53-1.92,1.61-3.63,3.1-4.91,1.46-1.28,3.27-2.06,5.15-2.25,1.9-.19,3.81.21,5.49,1.17,1.68.96,3.05,2.41,3.94,4.19.89,1.78,1.26,3.8,1.06,5.8-.22,2-.97,3.89-2.19,5.43-.8,1.02-1.77,1.86-2.88,2.48-1.11.62-2.32,1-3.56,1.13-1.24.13-2.5,0-3.69-.39-1.19-.38-2.32-1.02-3.27-1.86Z"/>
  <path class="cls-4" d="M2813.4,640.32c-1.5-1.27-2.61-2.98-3.19-4.92-.58-1.94-.6-4.02-.04-5.97.55-1.95,1.64-3.68,3.12-4.97,1.48-1.29,3.32-2.09,5.22-2.28,1.92-.2,3.85.22,5.55,1.19,1.68.97,3.08,2.45,3.96,4.25.89,1.8,1.26,3.84,1.04,5.87-.22,2.02-1,3.93-2.26,5.48-.77,1.02-1.77,1.86-2.88,2.48-1.08.62-2.3,1-3.54,1.13-1.26.13-2.5,0-3.72-.39-1.19-.39-2.3-1.02-3.27-1.86Z"/>
  <path class="cls-4" d="M2790.46,669.25c-1.5-1.27-2.61-2.98-3.19-4.91s-.6-4.01-.07-5.96c.55-1.95,1.64-3.68,3.12-4.97,1.48-1.29,3.3-2.1,5.2-2.3,1.92-.2,3.85.2,5.53,1.16,1.7.96,3.1,2.43,3.98,4.22.91,1.79,1.28,3.83,1.08,5.85-.2,2.02-.97,3.93-2.21,5.48-.8,1.03-1.77,1.88-2.88,2.52s-2.32,1.02-3.56,1.16c-1.26.13-2.52,0-3.72-.38-1.22-.38-2.32-1.02-3.3-1.86Z"/>
  <path class="cls-4" d="M2767.56,698.12c4,3.54,10,2.92,13.41-1.37,3.41-4.29,2.92-10.63-1.08-14.17-4-3.54-10-2.92-13.41,1.37-3.41,4.29-2.92,10.63,1.08,14.17Z"/>
  <path class="cls-4" d="M2744.6,727.05c-1.48-1.27-2.57-2.97-3.12-4.89-.55-1.92-.58-3.98-.02-5.9.55-1.92,1.64-3.63,3.1-4.91,1.48-1.28,3.27-2.06,5.18-2.25,1.9-.19,3.81.21,5.49,1.17,1.66.96,3.03,2.42,3.92,4.19.91,1.78,1.26,3.8,1.06,5.79-.2,2-.95,3.89-2.19,5.43-.8,1.02-1.77,1.86-2.88,2.48s-2.3,1-3.56,1.13c-1.24.13-2.5,0-3.69-.39-1.19-.38-2.3-1.02-3.27-1.86Z"/>
  <path class="cls-3" d="M2638.76,510.72l317.45-24.34v-95.74h-317.45v120.08Z"/>
  <path class="cls-3" d="M2688.67,877.3l303.74-74.26-17.59-82.08-305.84,39.14,19.69,117.21Z"/>
  <path class="cls-2" d="M259.01,1053.56c4.84,0,7.26,2.42,7.26,7.26,0,11.93.12,23.92.35,35.96.24,12.05.35,24.04.35,35.96,0,.24.06.71.18,1.42.12.71.41,1.06.88,1.06.83,0,1.48-.12,1.95-.35,11.69-5.08,22.26-12.75,31.71-23.03,9.45-10.27,16.42-21.32,20.9-33.13,1.18-3.07,2.18-6.2,3.01-9.39.83-3.19,1.71-6.38,2.66-9.57.59-2.01,1.36-3.54,2.3-4.61,1.06-1.06,2.72-1.59,4.96-1.59h65.02c2.01,0,3.66.41,4.96,1.24,1.42.71,2.13,2.19,2.13,4.43,0,.47-.06,1.06-.18,1.77-.12.71-.24,1.3-.36,1.77-6.5,23.5-15.83,43.64-27.99,60.41-12.05,16.77-27.46,32.77-46.24,48.01l-.71.71.18,1.77c12.4,18.9,25.33,37.5,38.8,55.8,13.46,18.31,26.93,36.61,40.39,54.92.71.94,1.48,2.07,2.3,3.37.83,1.18,1.24,2.42,1.24,3.72,0,2.24-1.12,3.6-3.37,4.07-2.13.35-4.02.53-5.67.53h-75.82c-2.01,0-3.9-.95-5.67-2.84-2.6-2.83-5.08-5.85-7.44-9.03-2.24-3.31-4.55-6.5-6.91-9.57-6.61-8.86-13.23-17.71-19.84-26.57-6.5-8.98-13.05-17.95-19.67-26.93-.35-.47-.71-.94-1.06-1.42-.35-.47-.88-.71-1.6-.71h-.35c-.83.83-1.24,2.72-1.24,5.67v5.85c0,9.8.06,19.66.18,29.58.12,9.92-.12,19.78-.71,29.59-.35,4.84-2.77,7.26-7.26,7.26h-68.03c-4.73,0-7.09-2.48-7.09-7.44,0-6.38.29-12.76.88-19.13.59-6.5,1-12.93,1.24-19.31.59-13.35,1-26.69,1.24-40.04.24-13.46.35-26.87.35-40.21,0-12.28-.06-24.62-.18-37.02-.12-12.52-.47-24.92-1.06-37.2-.24-5.9-.59-11.81-1.06-17.72-.47-6.02-.71-11.99-.71-17.89,0-4.96,2.36-7.44,7.09-7.44h67.67Z"/>
  <path class="cls-2" d="M543.79,1060.83c0-4.84,2.42-7.26,7.26-7.26h66.26c4.84,0,7.26,2.42,7.26,7.26,0,17.12-.18,34.31-.53,51.55-.35,17.12-.53,34.31-.53,51.55,0,21.02.23,41.99.71,62.89.47,20.9.71,41.87.71,62.89,0,4.84-2.42,7.26-7.26,7.26h-66.96c-4.73,0-7.09-2.42-7.09-7.26,0-21.02.18-41.99.53-62.89.47-20.9.71-41.87.71-62.89,0-17.24-.18-34.43-.53-51.55-.35-17.24-.53-34.43-.53-51.55Z"/>
  <path class="cls-2" d="M752.92,1061c0-4.96,2.36-7.44,7.09-7.44h164.05c4.73,0,7.09,2.48,7.09,7.44,0,5.79-.18,11.63-.53,17.54-.24,5.79-.47,11.63-.71,17.54-.12,4.72-.24,9.45-.35,14.17,0,4.61-.12,9.27-.35,14-.12,4.84-2.54,7.26-7.26,7.26h-40.39c-1.54,0-2.3.77-2.3,2.3v27.63c0,21.38.24,42.75.71,64.13.47,21.38.71,42.75.71,64.13,0,4.84-2.42,7.26-7.26,7.26h-66.96c-4.61,0-6.91-2.42-6.91-7.26,0-19.49.18-38.98.53-58.46.35-19.49.53-38.97.53-58.46v-38.97c0-1.54-.71-2.3-2.13-2.3h-36.32c-4.73,0-7.15-2.42-7.26-7.26-.24-4.73-.35-9.39-.35-14s-.12-9.45-.36-14.17c-.12-5.9-.35-11.75-.71-17.54-.35-5.9-.53-11.75-.53-17.54Z"/>
  <path class="cls-2" d="M1227.61,1211.23c1.77,0,3.13.65,4.07,1.95.94,1.3,1.77,2.6,2.48,3.9.71,1.42,2.36,4.9,4.96,10.45,2.72,5.43,5.55,11.46,8.5,18.07,3.07,6.5,5.73,12.28,7.97,17.36,2.25,5.08,3.37,7.97,3.37,8.68,0,.83-.35,1.65-1.06,2.48-.59.71-1.18,1.3-1.77,1.77-6.5,5.2-14.35,9.57-23.56,13.11-9.21,3.42-18.72,6.02-28.52,7.79-9.69,1.77-18.66,2.66-26.93,2.66-26.22,0-48.95-5.02-68.21-15.06-19.25-10.16-34.13-24.69-44.64-43.58-10.51-19.02-15.77-41.75-15.77-68.21,0-24.68,4.55-46.12,13.64-64.31,9.1-18.19,22.38-32.24,39.86-42.16,17.6-10.04,38.92-15.06,63.95-15.06,7.91,0,16.77.77,26.58,2.3,9.92,1.54,19.6,3.78,29.05,6.73,9.57,2.95,17.66,6.62,24.27,10.98,2.36,1.54,3.54,3.37,3.54,5.49,0,.47-.71,2.6-2.13,6.38-1.42,3.66-3.19,8.15-5.31,13.46-2.13,5.31-4.31,10.75-6.56,16.3-2.13,5.43-4.08,10.21-5.85,14.35-1.65,4.13-2.77,6.79-3.37,7.97-.59,1.3-1.3,2.54-2.13,3.72-.83,1.06-2.07,1.59-3.72,1.59-1.3,0-3.9-.94-7.8-2.83-3.78-1.89-8.33-3.78-13.64-5.67-5.19-1.89-10.57-2.83-16.12-2.83-8.86,0-17.3,1.59-25.33,4.78-8.03,3.19-14.59,8.03-19.67,14.53-4.96,6.38-7.44,14.53-7.44,24.45,0,17.6,5.2,30.06,15.59,37.38,10.51,7.32,23.86,10.98,40.04,10.98,6.02,0,12.05-.59,18.07-1.77,6.14-1.3,11.93-3.31,17.36-6.02,1.18-.59,2.19-1.06,3.01-1.42.83-.47,1.89-.71,3.19-.71Z"/>
  <path class="cls-2" d="M1620.09,1053.56c4.73,0,7.09,2.48,7.09,7.44,0,5.9-.24,11.87-.71,17.89-.47,6.02-.83,11.99-1.06,17.89-.47,12.4-.89,24.8-1.24,37.2-.24,12.4-.35,24.8-.35,37.2,0,13.35.18,26.69.53,40.04.47,13.23.94,26.51,1.42,39.86.24,6.5.59,13.05,1.06,19.67.59,6.5.89,13.05.89,19.66,0,4.37-2.3,6.56-6.91,6.56h-67.14c-2.6,0-4.43-.59-5.49-1.77-.94-1.18-1.54-2.95-1.77-5.31-.47-4.49-.65-9.04-.53-13.64.12-4.72.12-9.33,0-13.82-.12-8.98-.29-17.89-.53-26.75-.12-8.86-.18-17.77-.18-26.75,0-.47-.06-1.06-.18-1.77,0-.83-.41-1.24-1.24-1.24h-75.65c-.59,0-.94.41-1.06,1.24-.12.71-.18,1.3-.18,1.77,0,8.98-.06,17.89-.18,26.75-.12,8.86-.29,17.77-.53,26.75-.12,4.61-.18,9.21-.18,13.82.12,4.61-.06,9.15-.53,13.64-.24,2.36-.83,4.13-1.77,5.31-.83,1.18-2.6,1.77-5.31,1.77h-66.96c-4.73,0-7.09-2.48-7.09-7.44,0-6.38.29-12.76.89-19.13.59-6.5,1-12.93,1.24-19.31.59-13.35,1.06-26.63,1.42-39.86.35-13.35.53-26.69.53-40.04,0-12.4-.18-24.8-.53-37.2-.24-12.4-.59-24.8-1.06-37.2-.24-5.9-.59-11.87-1.06-17.89-.47-6.02-.71-11.99-.71-17.89,0-4.96,2.36-7.44,7.09-7.44h66.43c4.72,0,7.15,2.42,7.26,7.26.24,4.72.35,9.51.35,14.35s.06,9.45.18,14.17l.53,51.91v1.95c.12.71.59,1.06,1.42,1.06h75.47c.71,0,1.12-.35,1.24-1.06.12-.71.18-1.3.18-1.77v-26.75c.12-8.86.23-17.78.35-26.75.12-4.49.12-9.04,0-13.64,0-4.6.24-9.15.71-13.64.24-2.36.83-4.13,1.77-5.32.94-1.18,2.72-1.77,5.31-1.77h66.79Z"/>
  <path class="cls-2" d="M1759.78,1061c0-4.96,2.36-7.44,7.09-7.44h165.64c4.61,0,6.91,2.18,6.91,6.55,0,6.62-.18,13.29-.53,20.02-.24,6.61-.47,13.23-.71,19.84-.12,4.02-.18,8.09-.18,12.23.12,4.13,0,8.21-.35,12.22-.47,4.72-2.89,7.09-7.27,7.09h-87.51c-1.54,0-2.36,1.3-2.48,3.9v5.32c0,.71.12,2.07.35,4.07.36,1.89,1.06,2.84,2.13,2.84h74.23c4.72,0,7.09,2.42,7.09,7.26v41.1c0,4.84-2.36,7.26-7.09,7.26h-73.52c-2.13,0-3.19,1.06-3.19,3.19v5.67c0,.71.12,2.01.35,3.9.24,1.77.94,2.66,2.13,2.66l91.77.18c4.73,0,7.15,2.36,7.26,7.09.24,10.51.71,21.14,1.42,31.89.71,10.63,1.06,21.2,1.06,31.71,0,4.96-2.36,7.44-7.09,7.44h-170.95c-4.72,0-7.09-2.48-7.09-7.44,0-6.5.18-12.93.53-19.31.47-6.5.83-12.99,1.06-19.49.47-13.58.83-27.1,1.06-40.57.24-13.46.35-26.99.35-40.57,0-12.28-.18-24.57-.53-36.85-.24-12.28-.53-24.51-.89-36.67-.12-5.9-.36-11.75-.71-17.54-.24-5.9-.35-11.75-.35-17.54Z"/>
  <path class="cls-2" d="M2310.82,1304.24c-.11.12-.24.18-.35.18s-.29-.06-.53-.18c-.24-.12-.42-.18-.53-.18-26.7-13.94-52.85-28.94-78.47-45-25.53-16.06-51.39-31.48-77.61-46.24-.35-.35-.77-.53-1.24-.53-.24,0-.41.06-.53.18,0,.12-.12.53-.35,1.24-.24.71-.36,1.12-.36,1.24,0,9.33.06,18.66.18,27.99.12,9.33.18,18.66.18,27.99v9.39c.12,3.19.06,6.32-.18,9.39-.36,4.84-2.78,7.26-7.27,7.26h-68.74c-4.72,0-7.09-2.48-7.09-7.44,0-6.38.3-12.81.89-19.31.59-6.5,1-12.93,1.24-19.31.59-13.35,1-26.75,1.24-40.21.35-13.46.53-26.87.53-40.21s-.18-27.81-.53-41.63c-.24-13.94-.65-27.81-1.24-41.63-.35-6.62-.83-13.23-1.42-19.84-.59-6.73-.89-13.4-.89-20.02,0-.59.18-.94.53-1.06h.36c.12-.12.23-.18.35-.18.35,0,.77.12,1.24.35,18.07,9.45,35.79,19.49,53.15,30.11,17.48,10.63,34.89,21.38,52.26,32.24,8.27,5.08,16.55,10.22,24.8,15.41,8.27,5.08,16.66,9.98,25.15,14.7.13,0,.31.06.53.18.35.12.6.18.71.18.6,0,.89-.29.89-.89.13-.71.18-1.24.18-1.6v-50.67c0-4.13-.04-8.33-.18-12.58-.11-4.37-.04-8.62.18-12.75.35-4.84,2.79-7.26,7.28-7.26h67.5c4.71,0,7.08,2.48,7.08,7.44,0,6.02-.24,12.05-.71,18.07-.46,6.02-.84,12.05-1.06,18.07-.49,12.52-.88,25.04-1.24,37.56-.24,12.52-.35,25.1-.35,37.73,0,14.76.18,29.53.53,44.29.35,14.76.93,29.53,1.77,44.29.35,7.09.77,14.17,1.24,21.26.6,6.97,1,14,1.24,21.08l-.35.89Z"/>
  <path class="cls-5" d="M300.26,5.62c81.94-14.96,180.77-2.11,267.39,63.54,132.46,100.42,135.97,272.96,25.84,391.56-9,9.69-16.29,8.49-22.73-3.75-20.39-38.96-48.55-71.68-81.2-100.6-5.75-5.04-12.75-8.42-20.27-9.79-83.91-13.34-161.74,3.35-233.06,49.36-6.29,4.36-11.28,10.36-14.41,17.34-18.04,39.75-30.45,81.06-33.28,124.94-.85,13.48-7.33,17.38-19.61,12.13C6.54,479.98-50.86,302.6,50.3,155.49,101.44,81.37,182.33,30.39,300.26,5.62ZM546.16,81.58c-3.53-2.48-6.16-4.62-9.03-6.32-8.8-5.24-17.93-9.95-26.46-15.49-9.61-6.19-18.23-5.39-28.66-.83-65.69,28.39-128.35,63.33-187.03,104.3-94.58,66.61-174.96,146.89-235.83,245.95-5.4,8.79-6.28,15.71.44,23.44,14.72,16.78,27.83,35.3,44.49,49.93,18.24,16.1,39.6,28.67,62,44.43,7.4-57.7,26.19-113.35,55.29-163.72,53.23-93.69,129.45-164.89,219.85-221.65,33.62-21.14,68.95-39.56,104.92-60.05ZM40.36,395.74C144.76,231.71,290.27,121.24,466.02,40.88c-27.55-6.67-50.32-17.76-75.3-4.4-8.51,4.54-18.16,6.9-27.17,10.5-121.44,48.33-231.54,114.92-326.68,205.23-3.77,3.56-8.15,7.96-9.13,12.63-9.13,43.92-5.48,86.88,12.62,130.91ZM585.45,435.16c31.14-35.89,52.09-79.47,60.69-126.2,2.03-10.79-1.15-16.74-9.98-22.76-55.17-37.6-114.91-68-177.77-90.48-38.9-13.94-39.1-13.81-71.72,12.59-12.91,10.47-25.35,21.56-39.25,33.41,98.88,42.32,180.52,101.34,238.03,193.44ZM648.89,264.94c-3.06-64.92-28.95-118.45-76.21-161.82-1.44-1.07-3.1-1.78-4.87-2.07s-3.58-.16-5.28.38c-38.98,20.19-77.72,40.86-119.07,62.75,38,16.21,72.46,29.22,105.37,45.4,33.49,16.44,65.44,36.02,100.08,55.36h-.02ZM380.21,16.95C282.61-3.08,49.42,138.71,33.57,227.15,124.18,147.84,251.61,69.19,363.59,23.86l16.62-6.91ZM241.45,364.75l-1.25,4.79c58.85-30.12,134.22-53.36,203.24-49.58-33.8-23.78-70.36-43.37-108.88-58.34-1.72-.35-3.5-.29-5.19.18-1.69.47-3.25,1.34-4.54,2.54-25.57,30.33-58.05,69.88-83.38,100.41Z"/>
  <path class="cls-1" d="M547.39,80.98c-35.98,20.48-71.3,38.91-104.86,60.03-90.31,56.75-166.53,127.97-219.85,221.65-29.1,50.37-47.9,106.02-55.29,163.72-22.4-15.77-43.76-28.33-62-44.44-16.65-14.56-29.77-33.15-44.49-49.93-6.81-7.71-5.91-14.58-.44-23.44,60.87-99.06,141.25-179.34,235.83-245.95,58.67-40.96,121.31-75.9,186.99-104.29,10.36-4.46,19.05-5.37,28.66.83,8.57,5.53,17.66,10.26,26.46,15.49,2.96,1.68,5.47,3.84,9,6.32Z"/>
  <path class="cls-1" d="M41.59,395.14c-18.1-44.03-21.73-86.92-12.66-130.9.97-4.73,5.4-9.08,9.13-12.63C133.22,161.37,243.32,94.8,364.74,46.38c9.05-3.61,18.7-5.97,27.17-10.5,24.98-13.36,47.75-2.27,75.3,4.4C291.49,120.61,146,231.1,41.59,395.14Z"/>
  <path class="cls-1" d="M586.27,434.24c-57.51-92.1-139.15-151.11-238.03-193.41,13.9-11.85,26.34-22.94,39.25-33.41,32.64-26.4,32.82-26.53,71.72-12.59,62.86,22.48,122.6,52.88,177.77,90.48,8.82,6,12,11.95,9.98,22.76-8.6,46.72-29.55,90.29-60.69,126.17Z"/>
  <path class="cls-1" d="M649.72,264.02c-34.66-19.34-66.6-38.92-100.06-55.37-32.82-16.2-67.36-29.19-105.37-45.4,41.35-21.9,80.09-42.56,119.07-62.75,1.73-.55,3.56-.68,5.35-.37,1.79.31,3.47,1.05,4.91,2.15,47.15,43.28,73.03,96.73,76.1,161.73Z"/>
  <path class="cls-1" d="M379.13,17.18C267.15,62.51,125,146.49,34.43,225.84,50.29,137.49,281.52-2.89,379.13,17.18Z"/>
  <path class="cls-1" d="M249.54,354.9c25.3-30.52,50.52-61.14,76.12-91.41,1.29-1.19,2.85-2.06,4.54-2.54,1.69-.47,3.47-.54,5.19-.18,38.52,14.97,75.08,34.56,108.88,58.34-69.02-3.79-146.27,20.92-205.18,51.05-1.45-1.21,10.45-15.26,10.45-15.26ZM374.7,316.57l-56.95,8.67c-7.11-3.02-.09-6.81-7.02-6.43-8.94.49,9.67-29.2,11.69-19.64,2,10.41,10.08,15.57,19.21,12.26,6.08-2.37,10.21-10.19,15.23-15.5l17.82,20.64Z"/>
  <circle class="cls-5" cx="339.43" cy="304.82" r="13.27"/>
  <path class="cls-2" d="M1424.94,311.53c33.18,22.11,50.82,19.38,81.18-4.31,21.15-16.31,44-30.3,68.15-41.71,20.5-9.69,42.72-9.73,59.5,11.91,16.77-20.84,38.48-21.81,58.55-12.34,24.44,11.52,46.71,27.67,69.86,41.9,9,5.54,17.23,12.77,26.85,16.71,18.52,7.56,35.81,4.09,50.09-11.39l4.03,3.25c-5.45,9.07-9.43,19.53-16.58,26.96-37.9,39.34-132.22,41.22-171.78,3.66-7.9-7.49-13.95-16.97-21.53-26.49-13.13,24.72-33.16,41.28-60.42,48.6-31.93,8.61-63.37,5.99-94.34-4.31-25.35-8.48-46.45-21.45-53.56-52.46Z"/>
</svg>